<?xml version="1.0" encoding="UTF-8" standalone="no"?>
<!DOCTYPE svg PUBLIC "-//W3C//DTD SVG 1.1//EN" "http://www.w3.org/Graphics/SVG/1.1/DTD/svg11.dtd">
<svg version="1.1" xmlns="http://www.w3.org/2000/svg" xmlns:dc="http://purl.org/dc/elements/1.1/" xmlns:xl="http://www.w3.org/1999/xlink" viewBox="-432 -5 1224 870" width="1224" height="870">
  <defs>
    <marker orient="auto" overflow="visible" markerUnits="strokeWidth" id="StickArrow_Marker" stroke-linejoin="miter" stroke-miterlimit="10" viewBox="-5 -3 6 6" markerWidth="6" markerHeight="6" color="black">
      <g>
        <path d="M -3.2 0 L 0 0 M 0 1.2 L -3.2 0 L 0 -1.2" fill="none" stroke="currentColor" stroke-width="1"/>
      </g>
    </marker>
    <marker orient="auto" overflow="visible" markerUnits="strokeWidth" id="FilledArrow_Marker" stroke-linejoin="miter" stroke-miterlimit="10" viewBox="-1 -3 6 6" markerWidth="6" markerHeight="6" color="black">
      <g>
        <path d="M 3.2 0 L 0 -1.2 L 0 1.2 Z" fill="currentColor" stroke="currentColor" stroke-width="1"/>
      </g>
    </marker>
    <radialGradient cx="0" cy="0" r="1" id="Gradient" gradientUnits="userSpaceOnUse">
      <stop offset="0" stop-color="#15bef0"/>
      <stop offset=".2680316" stop-color="#0d91ce"/>
      <stop offset="1" stop-color="#004e9a"/>
    </radialGradient>
    <radialGradient id="Obj_Gradient" xl:href="#Gradient" gradientTransform="translate(-367.26996 247) scale(90.50967)"/>
    <linearGradient x1="0" x2="1" id="Gradient_2" gradientUnits="userSpaceOnUse">
      <stop offset="0" stop-color="black" stop-opacity="0"/>
      <stop offset="1" stop-color="black" stop-opacity=".4"/>
    </linearGradient>
    <linearGradient id="Obj_Gradient_2" xl:href="#Gradient_2" gradientTransform="translate(-367.26996 183) rotate(90) scale(126.55534)"/>
    <radialGradient cx="0" cy="0" r="1" id="Gradient_3" gradientUnits="userSpaceOnUse">
      <stop offset="0" stop-color="#fff203"/>
      <stop offset=".2984279" stop-color="#fbc40d"/>
      <stop offset="1" stop-color="#f26322"/>
    </radialGradient>
    <radialGradient id="Obj_Gradient_3" xl:href="#Gradient_3" gradientTransform="translate(-367.26996 249.61554) scale(88.6794)"/>
    <linearGradient x1="0" x2="1" id="Gradient_4" gradientUnits="userSpaceOnUse">
      <stop offset="0" stop-color="white" stop-opacity=".5"/>
      <stop offset=".4354327" stop-color="white" stop-opacity=".35"/>
      <stop offset="1" stop-color="white" stop-opacity=".2"/>
    </linearGradient>
    <linearGradient id="Obj_Gradient_4" xl:href="#Gradient_4" gradientTransform="translate(-351.7847 209.80343) rotate(25) scale(44.69841)"/>
    <linearGradient x1="0" x2="1" id="Gradient_5" gradientUnits="userSpaceOnUse">
      <stop offset="0" stop-color="white" stop-opacity=".5"/>
      <stop offset=".3356465" stop-color="white" stop-opacity=".35"/>
      <stop offset="1" stop-color="white" stop-opacity=".2"/>
    </linearGradient>
    <linearGradient id="Obj_Gradient_5" xl:href="#Gradient_5" gradientTransform="translate(-342.59237 234.80962) rotate(25) scale(19.392345)"/>
    <linearGradient x1="0" x2="1" id="Gradient_6" gradientUnits="userSpaceOnUse">
      <stop offset="0" stop-color="white" stop-opacity=".2"/>
      <stop offset=".47075157" stop-color="white" stop-opacity=".1"/>
      <stop offset="1" stop-color="white" stop-opacity="0"/>
    </linearGradient>
    <linearGradient id="Obj_Gradient_6" xl:href="#Gradient_6" gradientTransform="translate(-444.3525 211.05582) rotate(25) scale(170.10236)"/>
  </defs>
  <g id="aigw" stroke-opacity="1" stroke-dasharray="none" fill-opacity="1" fill="none" stroke="none">
    <title>aigw</title>
    <rect fill="white" x="-432" y="-5" width="1224" height="870"/>
    <g id="aigw_Layer_1">
      <title>Layer 1</title>
      <g id="Group_2">
        <title>server</title>
        <g id="Graphic_3">
          <path d="M 193.975 621.90506 L 193.975 585.3336 L 65.975 585.3336 L 65.975 621.90506 L 75.117855 621.90506 L 75.117855 631.0479 L 65.975 631.0479 L 65.975 667.61935 L 75.117855 667.61935 L 75.117855 676.7622 L 65.975 676.7622 L 65.975 713.3336 L 193.975 713.3336 L 193.975 676.7622 L 184.83214 676.7622 L 184.83214 667.61935 L 193.975 667.61935 L 193.975 631.0479 L 184.83214 631.0479 L 184.83214 621.90506 Z M 75.117855 603.61935 L 93.40357 603.61935 L 93.40357 612.7622 L 75.117855 612.7622 Z M 75.117855 649.3336 L 93.40357 649.3336 L 93.40357 658.4765 L 75.117855 658.4765 Z M 93.40357 704.1908 L 75.117855 704.1908 L 75.117855 695.0479 L 93.40357 695.0479 Z M 175.68928 676.7622 L 84.26071 676.7622 L 84.26071 667.61935 L 175.68928 667.61935 Z M 175.68928 631.0479 L 84.26071 631.0479 L 84.26071 621.90506 L 175.68928 621.90506 Z" fill="black"/>
        </g>
      </g>
      <g id="Group_4">
        <title>Page-1</title>
        <g id="Group_5">
          <title>Core</title>
          <g id="Group_6">
            <title>language</title>
            <g id="Graphic_7">
              <title>Shape</title>
              <path d="M 129.975 183 C 94.775 183 65.975 211.8 65.975 247 C 65.975 282.2 94.775 311 129.975 311 C 165.175 311 193.975 282.2 193.975 247 C 193.975 211.8 165.175 183 129.975 183 Z M 174.135 221.4 L 155.575 221.4 C 153.655 213.08 150.455 206.04 146.615 198.36 C 158.135 202.84 168.375 210.52 174.135 221.4 Z M 129.975 195.8 C 135.095 203.48 139.575 211.8 142.135 221.4 L 117.815 221.4 C 120.375 212.44 124.855 203.48 129.975 195.8 Z M 80.695 259.8 C 79.415 255.96 78.775 251.48 78.775 247 C 78.775 242.52 79.415 238.04 80.695 234.2 L 102.455 234.2 C 101.815 238.68 101.815 242.52 101.815 247 C 101.815 251.48 102.455 255.32 102.455 259.8 Z M 85.815 272.6 L 104.375 272.6 C 106.295 280.92 109.495 287.96 113.335 295.64 C 101.815 291.16 91.575 283.48 85.815 272.6 Z M 104.375 221.4 L 85.815 221.4 C 92.215 210.52 101.815 202.84 113.335 198.36 C 109.495 206.04 106.295 213.08 104.375 221.4 Z M 129.975 298.2 C 124.855 290.52 120.375 282.2 117.815 272.6 L 142.135 272.6 C 139.575 281.56 135.095 290.52 129.975 298.2 Z M 144.695 259.8 L 115.255 259.8 C 114.615 255.32 113.975 251.48 113.975 247 C 113.975 242.52 114.615 238.68 115.255 234.2 L 145.335 234.2 C 145.975 238.68 146.615 242.52 146.615 247 C 146.615 251.48 145.335 255.32 144.695 259.8 Z M 146.615 295.64 C 150.455 288.6 153.655 280.92 155.575 272.6 L 174.135 272.6 C 168.375 283.48 158.135 291.16 146.615 295.64 Z M 158.135 259.8 C 158.775 255.32 158.775 251.48 158.775 247 C 158.775 242.52 158.135 238.68 158.135 234.2 L 179.895 234.2 C 181.175 238.04 181.815 242.52 181.815 247 C 181.815 251.48 181.175 255.96 179.895 259.8 Z" fill="black"/>
            </g>
          </g>
        </g>
      </g>
      <g id="Group_8">
        <g id="Graphic_11">
          <circle cx="129.975" cy="830.3151" r="32.0000191328376" stroke="black" stroke-linecap="butt" stroke-linejoin="round" stroke-width="4.2666624"/>
        </g>
        <g id="Graphic_10">
          <path d="M 151.30834 853.7818 C 151.30834 841.9994 141.75742 832.4485 129.97503 832.4485 C 118.19264 832.4485 108.64172 841.9994 108.64172 853.7818" stroke="black" stroke-linecap="butt" stroke-linejoin="round" stroke-width="4.2666667"/>
        </g>
        <g id="Graphic_9">
          <circle cx="129.97503" cy="819.6485" r="12.8000204531459" stroke="black" stroke-linecap="butt" stroke-linejoin="round" stroke-width="4.2666667"/>
        </g>
      </g>
      <g id="Line_12">
        <line x1="129.975" y1="732.2336" x2="129.975" y2="796.1818" marker-start="url(#StickArrow_Marker)" stroke="black" stroke-linecap="round" stroke-linejoin="round" stroke-width="4"/>
      </g>
      <g id="Graphic_13">
        <text transform="translate(73.687 147.36635)" fill="black">
          <tspan font-family="Helvetica Neue" font-size="16" fill="black" x="4689582e-19" y="15" xml:space="preserve">Lite AI Gateway</tspan>
        </text>
      </g>
      <g id="Graphic_14">
        <text transform="translate(213.21685 640.1096)" fill="black">
          <tspan font-family="Helvetica Neue" font-size="16" fill="black" x="8526513e-20" y="15" xml:space="preserve">AIGWC (Console Server)</tspan>
        </text>
      </g>
      <g id="Line_15">
        <line x1="129.975" y1="329.9" x2="129.975" y2="566.43363" marker-end="url(#FilledArrow_Marker)" marker-start="url(#StickArrow_Marker)" stroke="black" stroke-linecap="round" stroke-linejoin="round" stroke-width="4"/>
      </g>
      <g id="Graphic_18">
        <text transform="translate(691.9148 .2070687)" fill="black">
          <tspan font-family="Helvetica Neue" font-size="16" fill="black" x="0" y="15" xml:space="preserve">Backends</tspan>
        </text>
      </g>
      <g id="Group_25">
        <g id="Group_16">
          <title>server</title>
          <g id="Graphic_17">
            <path d="M 791.6268 74.63176 L 791.6268 38.060335 L 663.6268 38.060335 L 663.6268 74.63176 L 672.7696 74.63176 L 672.7696 83.77462 L 663.6268 83.77462 L 663.6268 120.34605 L 672.7696 120.34605 L 672.7696 129.4889 L 663.6268 129.4889 L 663.6268 166.06034 L 791.6268 166.06034 L 791.6268 129.4889 L 782.4839 129.4889 L 782.4839 120.34605 L 791.6268 120.34605 L 791.6268 83.77462 L 782.4839 83.77462 L 782.4839 74.63176 Z M 672.7696 56.34605 L 691.05535 56.34605 L 691.05535 65.48891 L 672.7696 65.48891 Z M 672.7696 102.06034 L 691.05535 102.06034 L 691.05535 111.20319 L 672.7696 111.20319 Z M 691.05535 156.91748 L 672.7696 156.91748 L 672.7696 147.77462 L 691.05535 147.77462 Z M 773.3411 129.4889 L 681.9125 129.4889 L 681.9125 120.34605 L 773.3411 120.34605 Z M 773.3411 83.77462 L 681.9125 83.77462 L 681.9125 74.63176 L 773.3411 74.63176 Z" fill="black"/>
          </g>
        </g>
        <g id="Group_21">
          <title>server</title>
          <g id="Graphic_22">
            <path d="M 791.6268 219.57143 L 791.6268 183 L 663.6268 183 L 663.6268 219.57143 L 672.7696 219.57143 L 672.7696 228.71429 L 663.6268 228.71429 L 663.6268 265.2857 L 672.7696 265.2857 L 672.7696 274.42857 L 663.6268 274.42857 L 663.6268 311 L 791.6268 311 L 791.6268 274.42857 L 782.4839 274.42857 L 782.4839 265.2857 L 791.6268 265.2857 L 791.6268 228.71429 L 782.4839 228.71429 L 782.4839 219.57143 Z M 672.7696 201.28571 L 691.05535 201.28571 L 691.05535 210.42857 L 672.7696 210.42857 Z M 672.7696 247 L 691.05535 247 L 691.05535 256.14286 L 672.7696 256.14286 Z M 691.05535 301.85714 L 672.7696 301.85714 L 672.7696 292.7143 L 691.05535 292.7143 Z M 773.3411 274.42857 L 681.9125 274.42857 L 681.9125 265.2857 L 773.3411 265.2857 Z M 773.3411 228.71429 L 681.9125 228.71429 L 681.9125 219.57143 L 773.3411 219.57143 Z" fill="black"/>
          </g>
        </g>
        <g id="Group_23">
          <title>server</title>
          <g id="Graphic_24">
            <path d="M 791.6268 364.5111 L 791.6268 327.93966 L 663.6268 327.93966 L 663.6268 364.5111 L 672.7696 364.5111 L 672.7696 373.65395 L 663.6268 373.65395 L 663.6268 410.2254 L 672.7696 410.2254 L 672.7696 419.36824 L 663.6268 419.36824 L 663.6268 455.93966 L 791.6268 455.93966 L 791.6268 419.36824 L 782.4839 419.36824 L 782.4839 410.2254 L 791.6268 410.2254 L 791.6268 373.65395 L 782.4839 373.65395 L 782.4839 364.5111 Z M 672.7696 346.22538 L 691.05535 346.22538 L 691.05535 355.36824 L 672.7696 355.36824 Z M 672.7696 391.93966 L 691.05535 391.93966 L 691.05535 401.0825 L 672.7696 401.0825 Z M 691.05535 446.7968 L 672.7696 446.7968 L 672.7696 437.65395 L 691.05535 437.65395 Z M 773.3411 419.36824 L 681.9125 419.36824 L 681.9125 410.2254 L 773.3411 410.2254 Z M 773.3411 373.65395 L 681.9125 373.65395 L 681.9125 364.5111 L 773.3411 364.5111 Z" fill="black"/>
          </g>
        </g>
      </g>
      <g id="Line_26">
        <path d="M 464.56366 246.97375 L 464.56366 102.06034 L 644.7268 102.06034" marker-end="url(#FilledArrow_Marker)" stroke="black" stroke-linecap="round" stroke-linejoin="round" stroke-width="4"/>
      </g>
      <g id="Line_27">
        <line x1="212.875" y1="247" x2="644.7268" y2="247" marker-end="url(#FilledArrow_Marker)" marker-start="url(#StickArrow_Marker)" stroke="black" stroke-linecap="round" stroke-linejoin="round" stroke-width="4"/>
      </g>
      <g id="Line_28">
        <path d="M 464.26893 247 L 464.26893 391.93966 L 644.7268 391.93966" marker-end="url(#FilledArrow_Marker)" stroke="black" stroke-linecap="round" stroke-linejoin="round" stroke-width="4"/>
      </g>
      <g id="Graphic_29">
        <rect x="315.27394" y="232.776" width="50.88" height="28.447998" fill="white"/>
        <rect x="315.27394" y="232.776" width="50.88" height="28.447998" stroke="black" stroke-linecap="round" stroke-linejoin="round" stroke-width="1"/>
        <text transform="translate(320.27394 237.776)" fill="black">
          <tspan font-family="Helvetica Neue" font-size="16" fill="black" x="50448534e-20" y="15" xml:space="preserve">Proxy</tspan>
        </text>
      </g>
      <g id="Line_35">
        <line x1="-303.2701" y1="247" x2="47.075" y2="247" marker-end="url(#FilledArrow_Marker)" stroke="black" stroke-linecap="round" stroke-linejoin="round" stroke-width="4"/>
      </g>
      <g id="Group_36">
        <g id="Graphic_50">
          <circle cx="-367.26996" cy="247" r="64.0000702656862" fill="url(#Obj_Gradient)"/>
        </g>
        <g id="Graphic_49">
          <circle cx="-367.26996" cy="246.27767" r="63.2777388059718" fill="url(#Obj_Gradient_2)"/>
        </g>
        <g id="Graphic_48">
          <path d="M -321.04962 219.71031 L -323.6219 219.25947 L -321.63784 216.10322 C -321.64533 216.08694 -325.6896 218.65758 -325.69675 218.64163 C -326.4012 217.07913 -328.2498 217.76077 -329.47084 216.96618 C -329.10105 216.38707 -328.9536 215.78193 -328.71856 215.32783 C -328.36114 214.63773 -327.10886 213.51566 -327.32078 212.88513 L -327.05418 211.3044 L -326.61375 210.3451 L -329.31166 210.15433 L -330.8019 209.84314 L -332.6004 209.1309 L -332.87546 212.33727 L -333.5675 213.02738 C -333.58184 213.01664 -333.59974 212.9997 -333.61374 212.9893 C -335.17786 211.82816 -335.85788 208.863 -337.77682 209.5492 C -339.6961 210.2354 -340.43535 208.48702 -342.87903 209.59737 C -345.3224 210.7074 -344.7752 209.97595 -345.73775 211.13024 C -346.70064 212.28421 -346.43143 214.13675 -346.58345 215.3057 C -346.7192 216.34866 -347.4809 217.84834 -347.3201 218.99808 C -347.47277 218.96 -347.61763 218.93753 -347.77974 218.87633 C -348.96984 218.4245 -348.39204 217.25784 -349.70877 216.78323 C -350.5177 216.49124 -350.4975 217.78681 -350.2016 219.17679 C -350.241 219.21227 -350.97147 219.86168 -352.1964 220.04235 C -353.45584 220.2279 -353.5193 218.92744 -354.9005 219.154 C -356.2817 219.38024 -353.7055 222.20934 -352.3624 223.182 C -351.01964 224.15432 -350.66906 226.612 -348.8214 226.0596 C -348.0281 225.8223 -347.47863 225.95575 -346.92297 226.11298 C -345.89367 226.723 -345.66906 227.78322 -343.6199 228.0866 C -342.58215 228.24025 -342.1186 228.3685 -341.8263 228.44663 L -341.74166 228.5648 L -340.52584 231.11102 L -339.1632 227.4691 C -339.00273 227.3047 -338.894 227.1566 -338.75143 226.98375 C -338.1948 229.27508 -337.4744 232.22007 -337.4923 232.22202 C -340.3823 232.51108 -340.28398 235.84832 -342.21855 237.38152 C -342.94967 236.47527 -343.8419 235.91212 -344.4448 235.2894 C -345.36047 234.3431 -346.48775 231.7269 -347.61503 231.7269 L -350.01053 230.44663 L -351.3139 229.22202 L -353.0753 233.4525 L -354.3787 235.67905 L -356.4923 238.18393 L -351.49002 240.35482 L -350.75467 241.83822 C -350.77974 241.85547 -350.81652 241.87533 -350.8406 241.89226 C -353.54927 243.77897 -358.67947 243.27247 -358.61176 246.72494 C -358.54405 250.17773 -361.7511 250.42285 -361.28526 254.94693 C -360.81944 259.4707 -361.69932 258.19725 -360.36436 260.36587 C -359.0294 262.5345 -355.90896 263.10122 -354.11307 263.97557 C -352.51053 264.75584 -350.51216 266.7884 -348.57857 267.14972 C -348.72245 267.37465 -348.83606 267.59503 -349.02225 267.82257 C -350.38944 269.49086 -351.95194 267.93357 -353.4246 269.79262 C -354.32987 270.93455 -352.23774 271.6009 -349.8455 271.87498 C -349.80936 271.95766 -349.15995 273.48077 -349.5304 275.5462 C -349.91158 277.66924 -352.0346 277.07028 -352.4155 279.4111 C -352.79666 281.75192 -346.86308 279.13897 -344.5766 277.50583 C -342.2905 275.8727 -338.15345 276.63474 -338.0444 273.3688 C -337.99785 271.96677 -337.48743 271.15623 -336.93535 270.34796 C -335.4002 269.0234 -333.57598 269.23435 -331.98386 266.1061 C -331.17754 264.5218 -330.7215 263.84634 -330.4386 263.41925 L -330.20294 263.34666 L -325.45717 262.7669 L -330.57273 258.61392 C -331.13685 257.514 -331.8953 256.53612 -332.34193 255.68424 C -332.78236 254.84407 -333.0812 253.53027 -333.51055 252.36686 C -332.84877 252.2308 -332.21368 251.83593 -331.6144 250.81282 C -329.9259 247.93 -328.422 248.70508 -326.3722 244.81315 C -324.32273 240.92123 -324.57697 242.24512 -324.0734 240.04037 C -323.5698 237.83562 -324.63263 236.4144 -324.9715 235.1416 C -325.31036 233.86915 -325.02032 231.03517 -326.00502 230.48602 L -327.47345 228.2012 L -327.3198 227.5277 C -326.18894 227.31024 -325.5789 226.5915 -324.979 226.195 C -324.33055 225.7663 -322.69057 225.3965 -322.56818 224.74254 L -321.56557 223.49189 L -320.44058 223.37926 L -320.4028 221.6374 L -319.82567 220.06025 Z M -337.9679 226.06057 C -337.93405 226.0228 -337.88978 225.9639 -337.85625 225.92906 C -337.46888 225.52476 -336.78984 225.11102 -336.21953 224.65237 C -336.01934 224.9971 -335.67917 225.27802 -334.99427 225.42125 C -334.3634 225.55308 -333.9692 225.75425 -333.6157 225.9704 L -335.381 229.22202 Z" fill="black"/>
        </g>
        <g id="Graphic_47">
          <title>XMLID_1317_</title>
          <path d="M -303.27002 246.8887 C -303.27002 282.22766 -331.931 310.99994 -367.26996 310.99994 C -402.6089 310.99994 -431.2699 282.22766 -431.2699 246.8887 C -431.2699 235.53545 -428.2648 224.85034 -423.0892 215.61224 C -426.3725 210.9373 -427.5413 201.6992 -420.13947 194.01919 C -420.13947 196.96857 -418.35856 202.0331 -416.35517 205.8174 C -414.7414 208.8225 -413.01413 211.0004 -411.79165 210.71482 C -409.00506 210.06385 -399.2699 210.04703 -397.8786 210.71482 C -395.59703 207.7651 -390.0318 199.5844 -381.183 199.5844 C -386.1361 204.53752 -400.32733 221.84525 -375.61777 221.84525 C -372.83517 221.84525 -370.05256 221.84525 -370.05256 221.84525 L -386.7482 232.97567 C -386.7482 232.97567 -384.85588 236.64856 -386.7482 238.54088 C -388.863 236.42608 -397.8786 240.82247 -397.8786 246.8887 C -397.8786 252.9546 -391.42312 260.80173 -378.4004 260.80173 C -365.37764 260.80173 -368.66126 255.23652 -361.70475 255.23652 C -354.74823 255.23652 -353.35692 260.80173 -353.35692 260.80173 C -362.92893 260.80173 -369.88544 271.93215 -381.183 271.93215 C -375.61777 276.05036 -371.9449 277.49737 -364.48735 277.49737 C -346.0665 277.49737 -331.0961 262.52693 -331.0961 244.1061 C -331.0961 236.64856 -333.5448 229.80346 -337.663 224.23825 C -330.2058 229.80346 -325.19697 238.37376 -324.30668 248.11288 C -323.30465 244.21717 -322.74826 240.04326 -322.74826 235.75828 C -322.74826 219.06264 -329.42658 196.69038 -341.7255 188.23115 C -319.07537 198.08168 -303.27002 220.62072 -303.27002 246.8887 Z" fill="url(#Obj_Gradient_3)"/>
        </g>
        <g id="Graphic_46">
          <path d="M -397.87865 246.88867 C -397.87865 240.82227 -388.86303 236.42612 -386.74813 238.5407 C -385.19832 236.9909 -386.1775 234.27768 -386.58634 233.3353 C -386.69376 233.90984 -386.9187 234.45997 -387.36727 234.90854 C -389.54923 232.72658 -398.8513 237.26238 -398.8513 243.5215 C -398.8513 244.98275 -398.4522 246.5433 -397.7247 248.07845 C -397.77676 247.681 -397.87865 247.2744 -397.87865 246.88867 Z" fill="black"/>
        </g>
        <g id="Graphic_45">
          <path d="M -322.7482 235.75815 C -322.7482 238.0944 -323.24386 244.73682 -324.2896 248.1085 C -324.1786 248.82594 -324.0419 249.53525 -323.97516 250.26604 C -322.9413 246.24652 -321.33348 236.45867 -321.33348 232.03745 C -321.33348 219.95087 -324.7381 204.99841 -331.14564 194.12668 C -334.46693 191.85357 -337.992 189.85487 -341.7254 188.23118 C -329.42657 196.69015 -322.7482 219.06253 -322.7482 235.75815 Z" fill="url(#Obj_Gradient_4)"/>
        </g>
        <g id="Graphic_44">
          <path d="M -337.6629 224.2383 C -333.54473 229.8034 -331.09616 236.64845 -331.09616 244.10612 C -331.09616 247.39746 -331.5926 250.57128 -332.4829 253.5765 C -330.85984 249.58105 -329.94643 245.22363 -329.94643 240.6504 C -329.94643 236.96323 -330.55808 233.43426 -331.63 230.11297 C -333.39564 227.92157 -335.39954 225.92743 -337.6629 224.2383 Z" fill="url(#Obj_Gradient_5)"/>
        </g>
        <g id="Graphic_43">
          <path d="M -353.3569 260.80174 C -353.3569 260.80174 -353.7003 259.4886 -354.83214 258.13996 C -363.74294 259.47492 -373.57483 269.70775 -384.4534 269.70775 C -383.28576 270.572 -382.20763 271.29434 -381.1523 271.94115 C -371.4268 272.39605 -362.08344 260.80174 -353.3569 260.80174 Z" fill="black"/>
        </g>
        <g id="Graphic_42">
          <path d="M -419.52446 197.68787 C -419.8783 196.32101 -420.13937 195.0274 -420.13937 194.01926 C -420.34184 194.22955 -420.4724 194.4509 -420.66215 194.66346 C -420.33436 195.66346 -419.9431 196.68267 -419.52446 197.68787 Z" fill="black"/>
        </g>
        <g id="Graphic_41">
          <path d="M -424.9916 211.51794 C -424.94405 211.432 -424.91117 211.33662 -424.863 211.251 C -424.97823 211.08662 -425.0674 210.87634 -425.17745 210.70153 C -425.11365 210.974 -425.0681 211.25524 -424.9916 211.51794 Z" fill="black"/>
        </g>
        <g id="Graphic_40">
          <path d="M -367.26996 309.55528 C -387.72306 309.55528 -406.2105 300.20624 -418.3241 285.59948 C -406.62947 300.9188 -388.02514 310.99994 -367.26996 310.99994 C -346.51477 310.99994 -328.047 301.11144 -316.35236 285.7921 C -328.46596 300.39887 -346.81685 309.55528 -367.26996 309.55528 Z" fill="black"/>
        </g>
        <g id="Graphic_39">
          <path d="M -376.33505 221.81155 L -387.36727 229.16636 C -387.36727 229.16636 -386.4249 231.03908 -386.5307 232.83074 L -370.0525 221.84508 C -370.0525 221.84508 -372.83505 221.84508 -375.61793 221.84508 C -375.88225 221.84508 -376.0795 221.81546 -376.33505 221.81155 Z" fill="black"/>
        </g>
        <g id="Graphic_38">
          <path d="M -389.56947 215.97956 C -390.40983 209.47847 -383.7732 202.17452 -381.18303 199.58436 C -383.17717 199.58436 -384.98055 200.0404 -386.64103 200.71782 C -389.4838 204.80473 -391.68015 212.4825 -389.56947 215.97956 Z" fill="black"/>
        </g>
        <g id="Graphic_37">
          <path d="M -341.7254 188.23118 C -341.5151 188.3757 -341.3198 188.5554 -341.1131 188.70807 C -349.0932 185.0759 -357.93045 183.00006 -367.26996 183.00006 C -386.9724 183.00006 -404.5671 192.00852 -416.1726 206.127 C -416.2331 206.0173 -416.29497 205.92973 -416.3552 205.81742 C -418.35845 202.03292 -420.13937 196.96847 -420.13937 194.01926 C -427.5414 201.69926 -426.37244 210.9372 -423.08924 215.612 C -428.2647 224.85028 -431.2699 235.5355 -431.2699 246.88867 C -431.2699 282.2275 -402.6088 310.99994 -367.26996 310.99994 C -331.93112 310.99994 -303.27002 282.2275 -303.27002 246.88867 C -303.27002 220.6208 -319.07534 198.08175 -341.7254 188.23118 Z" fill="url(#Obj_Gradient_6)"/>
        </g>
      </g>
      <g id="Graphic_51">
        <text transform="translate(157.06346 372.18148)" fill="black">
          <tspan font-family="Helvetica Neue" font-size="16" fill="black" x="0" y="15" xml:space="preserve">1.Add Site</tspan>
        </text>
      </g>
      <g id="Graphic_53">
        <text transform="translate(157.06345 406.5679)" fill="black">
          <tspan font-family="Helvetica Neue" font-size="16" fill="black" x="0" y="15" xml:space="preserve">2.Delete Site</tspan>
        </text>
      </g>
      <g id="Graphic_54">
        <text transform="translate(157.06345 440.9543)" fill="black">
          <tspan font-family="Helvetica Neue" font-size="16" fill="black" x="68922645e-20" y="15" xml:space="preserve">3.Update Site</tspan>
        </text>
      </g>
      <g id="Graphic_55">
        <text transform="translate(157.06345 475.3407)" fill="black">
          <tspan font-family="Helvetica Neue" font-size="16" fill="black" x="0" y="15" xml:space="preserve">4.Add Acme</tspan>
        </text>
      </g>
      <g id="Graphic_58">
        <rect x="-179.26699" y="232.776" width="106.272" height="28.447998" fill="white"/>
        <rect x="-179.26699" y="232.776" width="106.272" height="28.447998" stroke="black" stroke-linecap="round" stroke-linejoin="round" stroke-width="1"/>
        <text transform="translate(-174.26698 237.776)" fill="black">
          <tspan font-family="Helvetica Neue" font-size="16" fill="black" x="42632564e-20" y="15" xml:space="preserve">HTTP/HTTPS</tspan>
        </text>
      </g>
    </g>
  </g>
</svg>
